Simulation
nRows=46
nColumns=15
endheader
time  TH_x TH_y TH_z SC_y  SC_z  SC_x  AC_y  AC_z  AC_x  GH_y  GH_z  GH_yy  EL_x  PS_y
1.9499999999999993  0.000000  0.000000  0.000000  -29.096660554087475  13.53299560486781  23.20445927114845  60.22672840181003  11.924631666489908  4.045648943426967  47.987718910115376  57.898890290840164  -45.23425066927944  22.350202929495005  0.000000
1.9889999999999992  0.000000  0.000000  0.000000  -28.70927974670189  13.165757452923152  22.805449643672628  60.0492000681827  11.584162772937422  3.191289546656714  48.37306150624363  57.02152312191055  -44.75612488144579  22.561513344130017  0.000000
2.027999999999999  0.000000  0.000000  0.000000  -28.270819787223424  12.743171963323352  22.367542126124533  59.86271515791034  11.203236570933742  2.259783805634427  48.79856833314915  56.04936295411487  -44.314671324992084  22.765231077296946  0.000000
2.0669999999999993  0.000000  0.000000  0.000000  -27.787883095874932  12.268638523196579  21.889835914100704  59.669419435199465  10.78765036749843  1.2689965951566828  49.26062287350033  54.997537537707274  -43.91275858545157  22.946900883646194  0.000000
2.1059999999999994  0.000000  0.000000  0.000000  -27.271538824818048  11.747284451475249  21.370684899896744  59.468993264346324  10.344951571672182  0.2370604097031282  49.74384272128332  53.88221268190428  -43.519020315370405  23.095796670270875  0.000000
2.144999999999999  0.000000  0.000000  0.000000  -26.735919164832076  11.184376393883339  20.80649708389881  59.2611952437329  9.884339404186537  -0.8177252133569665  50.2235606832941  52.72023966072351  -43.08307360307824  23.20613739362457  0.000000
2.1839999999999993  0.000000  0.000000  0.000000  -26.197645359002323  10.584015488697153  20.189642288668413  59.04832232755577  9.41580407706686  -1.8760855770916538  50.671053263295654  51.52876678344539  -42.55789006138194  23.27876077335289  0.000000
2.2229999999999994  0.000000  0.000000  0.000000  -25.67626652074893  9.94899703111616  19.507282784706497  58.83634747111195  8.948746739001269  -2.916697120005784  51.057913638645374  50.32454701643976  -41.91456335113039  23.322072492679226  0.000000
2.261999999999999  0.000000  0.000000  0.000000  -25.194275321945113  9.281718103139804  18.742254564453077  58.63322443650865  8.491411371289715  -3.9153840251061087  51.357975434949736  49.121542816876186  -41.14080043005259  23.35111950242162  0.000000
2.3009999999999993  0.000000  0.000000  0.000000  -24.774135515489153  8.586068575166646  17.875812765737443  58.44494152556331  8.051994019578258  -4.845568253051705  51.54622347135371  47.92712937968457  -40.22543232844357  23.385024828166124  0.000000
2.339999999999999  0.000000  0.000000  0.000000  -24.43341552677315  7.868975802809323  16.8916068200071  58.27162360077081  7.640219595722973  -5.680143962943029  51.5969676617534  46.73850120116544  -39.14275932796215  23.444137652602105  0.000000
2.378999999999999  0.000000  0.000000  0.000000  -24.181129238405852  7.140446937200049  15.779334032368089  58.10659728284805  7.267839863742116  -6.39514007862094  51.483473264397354  45.543001655182856  -37.84897313433201  23.54798185632671  0.000000
2.4179999999999993  0.000000  0.000000  0.000000  -24.017368583344293  6.412186203506949  14.537116826931651  57.93859239903544  6.947370196387494  -6.973315619131843  51.178851987650226  44.322212384617345  -36.29168834609471  23.714015339100925  0.000000
2.456999999999999  0.000000  0.000000  0.000000  -23.936145491643725  5.695483753826638  13.171880050839047  57.755888966315695  6.689483033479163  -7.406728887663358  50.65778760828746  43.05906451418692  -34.42641107279249  23.956271214082616  0.000000
2.495999999999999  0.000000  0.000000  0.000000  -23.92953816520277  4.999155789856723  11.698640494674983  57.54970748386546  6.500939639017454  -7.696989385519789  49.89934596925354  41.74336955759329  -32.230656595544815  24.283312933371654  0.000000
2.5349999999999993  0.000000  0.000000  0.000000  -23.990708969226628  4.32900385949667  10.138935642171099  57.316016145581685  6.38340253399827  -7.853951260133322  48.890063073267335  40.37463467690397  -29.71047461409621  24.69535271458658  0.000000
2.573999999999999  0.000000  0.000000  0.000000  -24.114824790391896  3.6883005292318884  8.519250333733954  57.055526556954725  6.333499797435343  -7.893332333768713  47.62845814268602  38.96085778794395  -26.901419586590368  25.180671066934206  0.000000
2.612999999999999  0.000000  0.000000  0.000000  -24.29812964650181  3.0781554319528963  6.86924513142744  56.77248315496804  6.343485576412875  -7.834832089838301  46.12971928892095  37.515314565692  -23.86666624372756  25.713177008279896  0.000000
2.6519999999999992  0.000000  0.000000  0.000000  -24.537057584383554  2.4984449586517252  5.220544890958062  56.47214519143661  6.402665808270155  -7.701060975735613  44.429342232332814  36.05159897535897  -20.69162511274303  26.254420028874414  0.000000
2.690999999999999  0.000000  0.000000  0.000000  -24.827551893152336  1.9493757600817423  3.6059564979934424  56.15790660110316  6.499667095135835  -7.5176467645135165  42.58279189177905  34.578680714718224  -17.474015596211842  26.760838476229793  0.000000
2.729999999999999  0.000000  0.000000  0.000000  -25.164162988829325  1.432863989362006  2.059248190822415  55.828922928658194  6.624529847507864  -7.3131486273928825  40.660737849269914  33.09744856261054  -14.311200254766767  27.19271774687047  0.000000
2.768999999999999  0.000000  0.000000  0.000000  -25.538820774312796  0.9530176030478709  0.6146818156798837  55.4803237309245  6.769837193311577  -7.118342026782996  38.74103487917744  31.600501590166346  -11.289528652904556  27.520856448263068  0.000000
2.807999999999999  0.000000  0.000000  0.000000  -25.940068428126  0.5155628577055001  -0.6939457800208336  55.10555034211793  6.930023633032297  -6.9636853039007605  36.89949721618579  30.07475719494362  -8.478094765152377  27.729035343578087  0.000000
2.846999999999999  0.000000  0.000000  0.000000  -26.353464589091207  0.12714361602625984  -1.8349099511109521  54.70043525293215  7.099477651246806  -6.8757577671116135  35.200862080396845  28.505868444775555  -5.926337251582386  27.81359871109978  0.000000
2.885999999999999  0.000000  0.000000  0.000000  -26.76215510712779  -0.20591241495532048  -2.7804171141171206  54.26711817827942  7.2701746099515185  -6.873952275403171  33.68879419244488  26.883316995909873  -3.661006924816741  27.78122569955345  0.000000
2.924999999999999  0.000000  0.000000  0.000000  -27.148930408944725  -0.4786158129869636  -3.5085098000419177  53.816331362022076  7.429912173095729  -6.96753888472799  32.375885251718756  25.20461428964425  -1.6817017951433806  27.64776593055476  0.000000
2.963999999999999  0.000000  0.000000  0.000000  -27.499561458637523  -0.6876260284318789  -4.0048674223246445  53.367796534864695  7.561453297898656  -7.155109829164272  31.235885973476485  23.47867126609307  0.0426849423240275  27.438189856266163  0.000000
3.002999999999999  0.000000  0.000000  0.000000  -27.804516470500552  -0.8327993637906587  -4.265004373145844  52.94909911611475  7.644927343019057  -7.425948852719328  30.202504853615  21.72611588940575  1.5714040073037971  27.182247250607865  0.000000
3.041999999999999  0.000000  0.000000  0.000000  -28.060611489662833  -0.918365847631734  -4.297386765598804  52.59162810620933  7.662264941858885  -7.761244091519315  29.184602675587698  19.977892383367884  2.975531214430643  26.90880348344753  0.000000
3.080999999999999  0.000000  0.000000  0.000000  -28.271328988507896  -0.9518554382053774  -4.123673888358824  52.323963334886166  7.600808881911787  -8.136032068707998  28.102239598511645  18.27146885800583  4.305415266443868  26.640839648586333  0.000000
3.1199999999999988  0.000000  0.000000  0.000000  -28.445046669331806  -0.9433774997436846  -3.776295294334999  52.16179970723908  7.457585838261858  -8.524048789610262  26.934504463977586  16.64539173110783  5.550711022603017  26.39226277836485  0.000000
3.158999999999999  0.000000  0.000000  0.000000  -28.593581987127145  -0.9043412543022233  -3.2947067724789356  52.100920634269265  7.241941003101901  -8.903493324079296  25.752192796850554  15.133379706430517  6.613811747941834  26.16972971345913  0.000000
3.197999999999999  0.000000  0.000000  0.000000  -28.72951902142497  -0.8456794776391565  -2.7204685986769865  52.119790899793074  6.973859731734285  -9.261750640774007  24.70685508318255  13.760181588609061  7.325127226705365  25.97696444972722  0.000000
3.2369999999999988  0.000000  0.000000  0.000000  -28.86142320026361  -0.7770539928624062  -2.0941501817378994  52.19061978471183  6.679860612320016  -9.597308065230637  23.986825672173303  12.541704820230848  7.489319931888613  25.818598100502367  0.000000
3.275999999999999  0.000000  0.000000  0.000000  -28.99059765147233  -0.7069928271266118  -1.451920857579815  52.289524718922536  6.384705546297329  -9.912740337344463  23.747551749885087  11.487398233473888  6.956128494590763  25.700353378865344  0.000000
3.3149999999999986  0.000000  0.000000  0.000000  -29.112080421292625  -0.6440723146601831  -0.8210849293712871  52.40171042825403  6.104203700316964  -10.210768946969711  24.069605139361453  10.603557424646588  5.661429354480477  25.626697951143342  0.000000
3.3539999999999988  0.000000  0.000000  0.000000  -29.21827103861693  -0.5967927194244309  -0.2186555755547978  52.520349919839376  5.844571362089522  -10.493401705192598  24.948956723022036  9.893989073616936  3.6361844052288492  25.600274387842685  0.000000
3.392999999999999  0.000000  0.000000  0.000000  -29.3041845471839  -0.5716784694727284  0.3453943110987937  52.64306472438032  5.60681765889806  -10.761565993568862  26.315221113949146  9.35880407585129  0.9866284133622221  25.622240208190853  0.000000
3.4319999999999986  0.000000  0.000000  0.000000  -29.37041607716414  -0.5710939920754972  0.8651918942968588  52.76751647865538  5.390720810389226  -11.015627877406436  28.0598307606423  8.993006854200617  -2.1347244509981396  25.69388835758835  0.000000
3.4709999999999988  0.000000  0.000000  0.000000  -29.421405197214927  -0.5928760466381976  1.3373393335381356  52.89049854839177  5.197098051584527  -11.255421489009295  30.055155888019616  8.785728053990196  -5.546207896973995  25.8161878006378  0.000000
3.509999999999999  0.000000  0.000000  0.000000  -29.460039640315575  -0.6315793530039644  1.760553170096326  53.00891399748269  5.027869754823817  -11.479270718662054  32.16448210016449  8.719931750016725  -9.04700322732573  25.987269523724898  0.000000
3.5489999999999986  0.000000  0.000000  0.000000  -29.483620129918446  -0.6798960971240023  2.138606630004194  53.122765123959184  4.8835225960686195  -11.68370913154051  34.244369763944135  8.771782291481763  -12.419777976249868  26.20009530147122  0.000000
3.5879999999999987  0.000000  0.000000  0.000000  -29.48256510153282  -0.7317769572650101  2.481478662630777  53.23609801902608  4.762479725205042  -11.866344212374775  36.16254411681069  8.910684443203802  -15.459148596749182  26.44046184979972  0.000000
3.626999999999999  0.000000  0.000000  0.000000  -29.446593310511844  -0.7843623402437014  2.8029266837876796  53.35537550407725  4.662662443622358  -12.027345094884556  37.82249152409437  9.100590061081105  -18.008884041129303  26.688580452061146  0.000000
3.6659999999999986  0.000000  0.000000  0.000000  -29.373872276017753  -0.8379032410986031  3.1169958733115197  53.48585822677169  4.580542756648242  -12.17266639937362  39.19531268550459  9.304256882656645  -20.012816483529246  26.926215690937642  0.000000
3.7049999999999987  0.000000  0.000000  0.000000  -29.27740503877141  -0.8982625433884158  3.4334184059783057  53.629303848145156  4.511981437686107  -12.314010643994216  40.31640743356438  9.48754877324555  -21.51689736449828  27.1389183486792  0.000000
